name mfd
datacolumns  50
datarows  10
range   1.28500000 1.33000000
cursor 1.0 1.0 0.0
keys m_key
wrap
enforce_loops no
enforce_constraints no
calc_derivatives -1.000000
event_color 0.000000 0.000000 0.000000
endheader

            time      gaitcycle_l        pelvis_tz        pelvis_tx        pelvis_ty      pelvis_tilt      pelvis_list       pelvis_rot       lumbar_ext   lumbar_latbend       lumbar_rot         neck_ext     neck_latbend         neck_rot        arm_add_r       arm_flex_r        arm_rot_r     elbow_flex_r        pro_sup_r     wrist_flex_r        arm_add_l       arm_flex_l        arm_rot_l     elbow_flex_l        pro_sup_l     wrist_flex_l       hip_flex_r        hip_add_r        hip_rot_r        knee_tz_r        knee_tx_r        knee_ty_r      knee_flex_r       knee_add_r       knee_rot_r          pf_tz_r          pf_tx_r          pf_ty_r        pf_flex_r         pf_rot_r        pf_tilt_r       hip_flex_l        hip_add_l        hip_rot_l      knee_flex_l     ankle_flex_l     subt_angle_l      mtp_angle_l     ankle_flex_r     subt_angle_r 
      1.28500000      52.00381679      -0.23290197       0.06874003       0.86050077      -8.38457493       1.96094662       4.89631793      -4.94205896      -1.09596417     -11.23391621       0.00000000       0.00000000       0.00000000     -13.55352908       4.92273509     -37.97620697      18.66034641      70.00000000       0.00000000     -24.07250593      29.11152905     -13.07538340      56.86777940      70.00000000       0.00000000      32.52739718      -1.54021628      -8.40666845      -0.00053235       0.00182409       0.00023361      -0.64951112      -0.17774640      -3.14491503       0.00465772       0.04973212       0.00698865       7.83613225       0.79300495      -3.54279110     -10.95218129      -1.15022403       5.72702001       9.15285321      20.42009469      -0.00100000       0.00000000       0.98409108      -0.00100000 
      1.29000000      52.48091603      -0.23247534       0.07634788       0.85954150      -8.29871220       1.84933886       4.99442403      -4.94849349      -0.87793468     -11.29934136       0.00000000       0.00000000       0.00000000     -13.57300342       4.88891026     -38.05793987      18.57763020      70.00000000       0.00000000     -23.91788543      28.96648094     -13.06152250      56.98353161      70.00000000       0.00000000      32.48440003      -1.42751096      -8.06361183      -0.00058785       0.00190218       0.00026925       0.19767927      -0.12345690      -3.05485754       0.00460603       0.04968481       0.00633385       8.06941454       0.76826518      -3.49945687     -11.17426269      -0.87425919       5.58119554       9.83967375      20.24157209      -0.00100000       0.00000000       0.92163834      -0.00100000 
      1.29500000      52.95801527      -0.23201747       0.08400755       0.85869306      -8.21137008       1.72539939       5.08029740      -4.94856574      -0.64771390     -11.34708550       0.00000000       0.00000000       0.00000000     -13.59114330       4.85838616     -38.14481959      18.48332758      70.00000000       0.00000000     -23.73853788      28.78679829     -13.02543282      57.06901410      70.00000000       0.00000000      32.42607435      -1.29643059      -7.71296565      -0.00064359       0.00197970       0.00030469       1.04926573      -0.06898050      -2.96538507       0.00455509       0.04963428       0.00567580       8.30722386       0.74404148      -3.45522276     -11.37917880      -0.58941997       5.39597661      10.55499649      19.98043508      -0.00100000       0.00000000       0.81880003      -0.00100000 
      1.30000000      53.43511450      -0.23152643       0.09171221       0.85796344      -8.12332721       1.58892410       5.15292478      -4.94221033      -0.40591091     -11.37614864       0.00000000       0.00000000       0.00000000     -13.60770263       4.83221278     -38.23683178      18.37671802      70.00000000       0.00000000     -23.53559257      28.57395166     -12.96696777      57.12133727      70.00000000       0.00000000      32.35495901      -1.14672562      -7.35201703      -0.00069932       0.00205582       0.00033963       1.90271634      -0.01451502      -2.87741463       0.00450552       0.04957916       0.00501673       8.55038883       0.72064853      -3.41001376     -11.56370840      -0.29613868       5.17443293      11.30061156      19.63197259      -0.00100000       0.00000000       0.68159372      -0.00100000 
      1.30500000      53.91221374      -0.23099990       0.09945437       0.85735994      -8.03513079       1.43967239       5.21117792      -4.92979428      -0.15312444     -11.38539176       0.00000000       0.00000000       0.00000000     -13.62238745       4.81136041     -38.33375295      18.25754644      70.00000000       0.00000000     -23.31033451      28.32965729     -12.88636029      57.13812343      70.00000000       0.00000000      32.27384556      -0.97789852      -6.97650853      -0.00075498       0.00212990       0.00037387       2.75791494       0.03989457      -2.79165457       0.00445785       0.04951784       0.00435703       8.80050206       0.69834395      -3.36362203     -11.72430994       0.00565921       4.92310206      12.07906957      19.19246397      -0.00100000       0.00000000       0.51915297      -0.00100000 
      1.31000000      54.38931298      -0.23043526       0.10722605       0.85688882      -7.94708098       1.27740323       5.25385825      -4.91205719       0.11007753     -11.37373879       0.00000000       0.00000000       0.00000000     -13.63488510       4.79684464     -38.43482723      18.12598399      70.00000000       0.00000000     -23.06448043      28.05576417     -12.78406483      57.11720206      70.00000000       0.00000000      32.18558152      -0.78916546      -6.58160013      -0.00081059       0.00220142       0.00040724       3.61658684       0.09431936      -2.70864624       0.00441253       0.04944853       0.00369566       9.05973811       0.67734445      -3.31573352     -11.85727242       0.31654361       4.65157191      12.89346025      18.65893052       0.00100000       0.00000000       0.34325708      -0.00100000 
      1.31500000      54.86641221      -0.22982973       0.11501887       0.85655511      -7.85923471       1.10191810       5.27976419      -4.89009269       0.38310104     -11.34017615       0.00000000       0.00000000       0.00000000     -13.64487822       4.78968467     -38.53898227      17.98251109      70.00000000       0.00000000     -22.79991551      27.75432154     -12.66101908      57.05662431      70.00000000       0.00000000      32.09281565      -0.57947761      -6.16303350      -0.00086625       0.00226993       0.00043966       4.48147463       0.14889195      -2.62888160       0.00436996       0.04936925       0.00303084       9.33070152       0.65786233      -3.26595892     -11.95869320       0.63773878       4.37322195      13.74744144      18.02798162       0.00100000       0.00000000       0.16677882      -0.00100000 
      1.32000000      55.34351145      -0.22918050       0.12282420       0.85636233      -7.77142427       0.91311981       5.28775065      -4.86532597       0.66529490     -11.28379720       0.00000000       0.00000000       0.00000000     -13.65205202       4.79083768     -38.64474251      17.82805568      70.00000000       0.00000000     -22.51870350      27.42751414     -12.51856783      56.95481859      70.00000000       0.00000000      31.99771224      -0.34760473      -5.71817224      -0.00092206       0.00233490       0.00047097       5.35542356       0.20374709      -2.55291703       0.00433064       0.04927783       0.00236073       9.61620935       0.64013716      -3.21387774     -12.02479171       0.97084550       4.10278400      14.64476797      17.29786496       0.00100000       0.00000000       0.00280736      -0.00100000 
      1.32500000      55.82061069      -0.22848496       0.13063324       0.85631229      -7.68331425       0.71108863       5.27680730      -4.83944419       0.95584802     -11.20375198       0.00000000       0.00000000       0.00000000     -13.65612539       4.80109764     -38.75027935      17.66390064      70.00000000       0.00000000     -22.22299137      27.07773946     -12.35831246      56.81065544      70.00000000       0.00000000      31.90164372      -0.09229916      -5.24685569      -0.00097806       0.00239598       0.00050105       6.24042155       0.25898137      -2.48121336       0.00429487       0.04917269       0.00168418       9.91829017       0.62433852      -3.15924369     -12.05185545       1.31790580       3.85663952      15.58931690      16.46707944       0.00100000       0.00000000      -0.13621897      -0.00100000 
      1.33000000      56.29770992      -0.22774085       0.13843708       0.85640490      -7.59446153       0.49617040       5.24613348      -4.81428077       1.25376652     -11.09961994       0.00000000       0.00000000       0.00000000     -13.65682158       4.82132939     -38.85349311      17.49166677      70.00000000       0.00000000     -21.91520119      26.70729562     -12.18230195      56.62338408      70.00000000       0.00000000      31.80524143       0.18737940      -4.75277279      -0.00103422       0.00245309       0.00052983       7.13737144       0.31464795      -2.41404215       0.00426275       0.04905319       0.00100092      10.23779237       0.61051658      -3.10206434     -12.03637391       1.68120437       3.65132749      16.58486043      15.53482564       0.00100000       0.00000000      -0.23915206      -0.00100000 
